{"title":"Flo Rida Ft. Pitbull - Can't Believe It [Music Video] 1080p [Sby","uid":8923953,"size":175011087,"categoryP":"video","categoryS":"music_videos","magnet":"?xt=urn:btih:9b061dfd92bead12ea38cc8e5bb5ed762b285002&amp;dn=Flo+Rida+Ft.+Pitbull+-+Can%27t+Believe+It+%5BMusic+Video%5D+1080p+%5BSby&amp;tr=udp%3A%2F%2Ftracker.openbittorrent.com%3A80&amp;tr=udp%3A%2F%2Fopen.demonii.com%3A1337&amp;tr=udp%3A%2F%2Ftracker.coppersurfer.tk%3A6969&amp;tr=udp%3A%2F%2Fexodus.desync.com%3A6969","seeders":1,"leechers":0,"uploader":"Sbyky","files":1,"time":1379322055,"description":"[IMG]http://cdn.piczend.com/images/nmgzH11K/1379313752_cant%20believe%20it%20flo%20rida.jpg[/IMG]\n\nGeneral\nComplete name                            : Flo Rida Ft. Pitbull - Can't Believe It [Music Video] 1080p [Sbyky].mp4\nFormat                                   : MPEG-4\nFormat profile                           : Base Media / Version 2\nCodec ID                                 : mp42\nFile size                                : 167 MiB\nDuration                                 : 3mn 46s\nOverall bit rate mode                    : Variable\nOverall bit rate                         : 6 193 Kbps\nEncoded date                             : UTC 2013-07-27 23:05:00\nTagged date                              : UTC 2013-07-27 23:05:00\n\nVideo\nID                                       : 1\nFormat                                   : AVC\nFormat/Info                              : Advanced Video Codec\nFormat profile                           : &lt;a class=&quot;__cf_email__&quot; href=&quot;/cdn-cgi/l/email-protection&quot; data-cfemail=&quot;2a62434d426a661e041a&quot;&gt;[email&amp;#160;protected]&lt;/a&gt;&lt;script cf-hash='f9e31' type=&quot;text/javascript&quot;&gt;\n/* &lt;![CDATA[ */!function(){try{var t=&quot;currentScript&quot;in document?document.currentScript:function(){for(var t=document.getElementsByTagName(&quot;script&quot;),e=t.length;e--;)if(t[e].getAttribute(&quot;cf-hash&quot;))return t[e]}();if(t&amp;&amp;t.previousSibling){var e,r,n,i,c=t.previousSibling,a=c.getAttribute(&quot;data-cfemail&quot;);if(a){for(e=&quot;&quot;,r=parseInt(a.substr(0,2),16),n=2;a.length-n;n+=2)i=parseInt(a.substr(n,2),16)^r,e+=String.fromCharCode(i);e=document.createTextNode(e),c.parentNode.replaceChild(e,c)}}}catch(u){}}();/* ]]&gt; */&lt;/script&gt;\nFormat settings, CABAC                   : Yes\nFormat settings, ReFrames                : 1 frame\nCodec ID                                 : avc1\nCodec ID/Info                            : Advanced Video Coding\nDuration                                 : 3mn 46s\nBit rate                                 : 5 999 Kbps\nMaximum bit rate                         : 10.1 Mbps\nWidth                                    : 1 920 pixels\nHeight                                   : 1 080 pixels\nDisplay aspect ratio                     : 16:9\nFrame rate mode                          : Constant\nFrame rate                               : 23.976 fps\nColor space                              : YUV\nChroma subsampling                       : 4:2:0\nBit depth                                : 8 bits\nScan type                                : Progressive\nBits/(Pixel*Frame)                       : 0.121\nStream size                              : 162 MiB (97%)\nTagged date                              : UTC 2013-07-27 23:05:13\n\nAudio\nID                                       : 2\nFormat                                   : AAC\nFormat/Info                              : Advanced Audio Codec\nFormat profile                           : LC\nCodec ID                                 : 40\nDuration                                 : 3mn 46s\nBit rate mode                            : Variable\nBit rate                                 : 192 Kbps\nMaximum bit rate                         : 201 Kbps\nChannel(s)                               : 2 channels\nChannel positions                        : Front: L R\nSampling rate                            : 44.1 KHz\nCompression mode                         : Lossy\nStream size                              : 5.17 MiB (3%)\nTitle                                    : IsoMedia File Produced by Google, 5-11-2011\nEncoded date                             : UTC 2013-07-27 23:05:09\nTagged date                              : UTC 2013-07-27 23:05:13\n\nShared By Sbyky\n[IMG]http://cdn.piczend.com/images/liRi6Opy/1379259598_say%20thanks%20preaching%201.gif[/IMG]\n[IMG]http://cdn.piczend.com/images/HVuSYSI4/1379259626_seeding%20preaching%201.gif[/IMG]","torrent":{"xt":"urn:btih:9b061dfd92bead12ea38cc8e5bb5ed762b285002","amp;dn":"Flo+Rida+Ft.+Pitbull+-+Can%27t+Believe+It+%5BMusic+Video%5D+1080p+%5BSby","amp;tr":["udp%3A%2F%2Ftracker.openbittorrent.com%3A80","udp%3A%2F%2Fopen.demonii.com%3A1337","udp%3A%2F%2Ftracker.coppersurfer.tk%3A6969","udp%3A%2F%2Fexodus.desync.com%3A6969"],"infoHash":"9b061dfd92bead12ea38cc8e5bb5ed762b285002","infoHashBuffer":{"type":"Buffer","data":[155,6,29,253,146,190,173,18,234,56,204,142,91,181,237,118,43,40,80,2]},"announce":[],"urlList":[]}}